<svg width="97" height="97" viewBox="0 0 97 97" fill="none" xmlns="http://www.w3.org/2000/svg">
<circle cx="48.5" cy="48.5" r="48.5" fill="#007BFF"/>
<rect width="40" height="40" transform="translate(27.5 29)" fill="#007BFF"/>
<path d="M62.5002 40.6667H52.5002C52.0581 40.6667 51.6342 40.8423 51.3217 41.1548C51.0091 41.4674 50.8335 41.8913 50.8335 42.3333V47.3333H47.5002V35.6667C47.5002 35.2246 47.3246 34.8007 47.012 34.4882C46.6994 34.1756 46.2755 34 45.8335 34H32.5002C32.0581 34 31.6342 34.1756 31.3217 34.4882C31.0091 34.8007 30.8335 35.2246 30.8335 35.6667V62.3333C30.8335 62.7754 31.0091 63.1993 31.3217 63.5118C31.6342 63.8244 32.0581 64 32.5002 64H62.5002C62.9422 64 63.3661 63.8244 63.6787 63.5118C63.9912 63.1993 64.1668 62.7754 64.1668 62.3333V42.3333C64.1668 41.8913 63.9912 41.4674 63.6787 41.1548C63.3661 40.8423 62.9422 40.6667 62.5002 40.6667ZM40.8335 39H44.1668V42.3333H40.8335V39ZM37.5002 55.6667H34.1668V52.3333H37.5002V55.6667ZM37.5002 49H34.1668V45.6667H37.5002V49ZM37.5002 42.3333H34.1668V39H37.5002V42.3333ZM44.1668 55.6667H40.8335V52.3333H44.1668V55.6667ZM44.1668 49H40.8335V45.6667H44.1668V49ZM59.1668 55.6667H55.8335V52.3333H59.1668V55.6667ZM59.1668 49H55.8335V45.6667H59.1668V49Z" fill="white"/>
</svg>
