<svg width="97" height="97" viewBox="0 0 97 97" fill="none" xmlns="http://www.w3.org/2000/svg">
<circle cx="48.5" cy="48.5" r="48.5" fill="#4C40F7"/>
<path d="M49.5617 31.3871C49.2532 31.1658 48.8826 31.0477 48.503 31.0497C48.1233 31.0517 47.754 31.1736 47.4478 31.3981C44.0855 33.8346 33.8335 42.1286 33.8335 52.6666C33.8335 58.6194 37.4048 63.7454 42.5125 66.0426C41.6386 64.8128 41.1684 63.3419 41.1668 61.8333C41.1357 55.9281 47.6898 49.1961 47.9685 48.9999C48.1232 48.889 48.3089 48.8294 48.4992 48.8294C48.6896 48.8294 48.8752 48.889 49.03 48.9999C49.3087 49.1961 55.8335 54.4523 55.8335 61.8369C55.8335 63.4026 55.3293 64.8491 54.4897 66.0426C59.5955 63.7454 63.1668 58.6213 63.1668 52.6758C63.1668 41.9306 52.9332 33.7796 49.5617 31.3871V31.3871Z" fill="white"/>
</svg>
