<svg width="97" height="97" viewBox="0 0 97 97" fill="none" xmlns="http://www.w3.org/2000/svg">
<circle cx="48.5" cy="48.5" r="48.5" fill="#FF6800"/>
<rect width="40" height="40" transform="translate(28.5 29)" fill="#FF6800"/>
<path d="M38.5002 64H33.5002C33.0581 64 32.6342 63.8244 32.3217 63.5119C32.0091 63.1993 31.8335 62.7754 31.8335 62.3334V49C31.8335 48.558 32.0091 48.1341 32.3217 47.8215C32.6342 47.509 33.0581 47.3334 33.5002 47.3334H38.5002C38.9422 47.3334 39.3661 47.509 39.6787 47.8215C39.9912 48.1341 40.1668 48.558 40.1668 49V62.3334C40.1668 62.7754 39.9912 63.1993 39.6787 63.5119C39.3661 63.8244 38.9422 64 38.5002 64ZM50.1668 64H45.1668C44.7248 64 44.3009 63.8244 43.9883 63.5119C43.6758 63.1993 43.5002 62.7754 43.5002 62.3334V34C43.5002 33.558 43.6758 33.1341 43.9883 32.8215C44.3009 32.509 44.7248 32.3334 45.1668 32.3334H50.1668C50.6089 32.3334 51.0328 32.509 51.3453 32.8215C51.6579 33.1341 51.8335 33.558 51.8335 34V62.3334C51.8335 62.7754 51.6579 63.1993 51.3453 63.5119C51.0328 63.8244 50.6089 64 50.1668 64ZM61.8335 64H56.8335C56.3915 64 55.9675 63.8244 55.655 63.5119C55.3424 63.1993 55.1668 62.7754 55.1668 62.3334V44C55.1668 43.558 55.3424 43.1341 55.655 42.8215C55.9675 42.509 56.3915 42.3334 56.8335 42.3334H61.8335C62.2755 42.3334 62.6994 42.509 63.012 42.8215C63.3246 43.1341 63.5002 43.558 63.5002 44V62.3334C63.5002 62.7754 63.3246 63.1993 63.012 63.5119C62.6994 63.8244 62.2755 64 61.8335 64Z" fill="white"/>
</svg>
