<svg width="97" height="97" viewBox="0 0 97 97" fill="none" xmlns="http://www.w3.org/2000/svg">
<circle cx="48.5" cy="48.5" r="48.5" fill="#FF2D59"/>
<path d="M47.8115 40.6649H41.3365C40.6523 40.6647 39.9845 40.8751 39.424 41.2675C38.8634 41.6599 38.4372 42.2153 38.2032 42.8583L31.9365 60.0949C31.7148 60.7033 31.8665 61.3849 32.3232 61.8433L32.8115 62.3316L43.5148 51.6283C43.5132 51.5849 43.5015 51.5416 43.5015 51.4983C43.5015 51.0038 43.6481 50.5205 43.9228 50.1094C44.1975 49.6982 44.588 49.3778 45.0448 49.1886C45.5016 48.9994 46.0043 48.9498 46.4892 49.0463C46.9742 49.1428 47.4196 49.3809 47.7693 49.7305C48.1189 50.0801 48.357 50.5256 48.4535 51.0106C48.5499 51.4955 48.5004 51.9982 48.3112 52.455C48.122 52.9118 47.8016 53.3022 47.3904 53.5769C46.9793 53.8517 46.496 53.9983 46.0015 53.9983C45.9582 53.9983 45.9148 53.9866 45.8715 53.9849L35.1682 64.6883L35.6565 65.1766C35.8806 65.4013 36.1643 65.5571 36.4741 65.6256C36.784 65.6941 37.1069 65.6725 37.4048 65.5633L54.6415 59.2949C55.2845 59.0609 55.8399 58.6347 56.2323 58.0741C56.6247 57.5136 56.8351 56.8459 56.8348 56.1616V49.6866L60.1665 46.3566L51.1432 37.3333L47.8115 40.6649V40.6649ZM61.7332 44.1016L53.3998 35.7683L56.9332 32.2333L65.2665 40.5666L61.7332 44.1016Z" fill="white"/>
</svg>
